<svg width="43" height="30" viewBox="0 0 43 30" fill="none" xmlns="http://www.w3.org/2000/svg">
<path d="M42.525 26.25V3.75C42.525 1.675 40.85 0 38.775 0H3.75C1.675 0 0 1.675 0 3.75V26.25C0 28.325 1.675 30 3.75 30H38.775C40.85 30 42.525 28.325 42.525 26.25ZM39.25 3.475C40.075 4.3 39.625 5.15 39.175 5.575L29.025 14.875L38.775 25.025C39.075 25.375 39.275 25.925 38.925 26.3C38.6 26.7 37.85 26.675 37.525 26.425L26.6 17.1L21.25 21.975L15.925 17.1L5 26.425C4.675 26.675 3.925 26.7 3.6 26.3C3.25 25.925 3.45 25.375 3.75 25.025L13.5 14.875L3.35 5.575C2.9 5.15 2.45 4.3 3.275 3.475C4.1 2.65 4.95 3.05 5.65 3.65L21.25 16.25L36.875 3.65C37.575 3.05 38.425 2.65 39.25 3.475Z" fill="#1487D5"/>
</svg>
