<svg width="98" height="101" viewBox="0 0 98 101" fill="none" xmlns="http://www.w3.org/2000/svg">
<g filter="url(#filter0_f_611_1872)">
<rect x="5" y="4" width="88" height="88" rx="10" fill="#1487D5"/>
</g>
<g filter="url(#filter1_d_611_1872)">
<g clip-path="url(#paint0_diamond_611_1872_clip_path)" data-figma-skip-parse="true"><g transform="matrix(-0.0742298 0.078817 -0.078817 -0.0742298 86.187 7.88131)"><rect x="0" y="0" width="1105.82" height="604.596" fill="url(#paint0_diamond_611_1872)" opacity="1" shape-rendering="crispEdges"/><rect x="0" y="0" width="1105.82" height="604.596" transform="scale(1 -1)" fill="url(#paint0_diamond_611_1872)" opacity="1" shape-rendering="crispEdges"/><rect x="0" y="0" width="1105.82" height="604.596" transform="scale(-1 1)" fill="url(#paint0_diamond_611_1872)" opacity="1" shape-rendering="crispEdges"/><rect x="0" y="0" width="1105.82" height="604.596" transform="scale(-1)" fill="url(#paint0_diamond_611_1872)" opacity="1" shape-rendering="crispEdges"/></g></g><rect x="4" y="3" width="90" height="90" rx="10" data-figma-gradient-fill="{&#34;type&#34;:&#34;GRADIENT_DIAMOND&#34;,&#34;stops&#34;:[{&#34;color&#34;:{&#34;r&#34;:0.43529412150382996,&#34;g&#34;:0.80392158031463623,&#34;b&#34;:0.95294117927551270,&#34;a&#34;:1.0},&#34;position&#34;:0.0},{&#34;color&#34;:{&#34;r&#34;:0.0,&#34;g&#34;:0.0,&#34;b&#34;:0.0,&#34;a&#34;:1.0},&#34;position&#34;:1.0}],&#34;stopsVar&#34;:[{&#34;color&#34;:{&#34;r&#34;:0.43529412150382996,&#34;g&#34;:0.80392158031463623,&#34;b&#34;:0.95294117927551270,&#34;a&#34;:1.0},&#34;position&#34;:0.0},{&#34;color&#34;:{&#34;r&#34;:0.0,&#34;g&#34;:0.0,&#34;b&#34;:0.0,&#34;a&#34;:1.0},&#34;position&#34;:1.0}],&#34;transform&#34;:{&#34;m00&#34;:-148.45953369140625,&#34;m01&#34;:-157.63398742675781,&#34;m02&#34;:239.23373413085938,&#34;m10&#34;:157.63398742675781,&#34;m11&#34;:-148.45953369140625,&#34;m12&#34;:3.2940833568572998},&#34;opacity&#34;:1.0,&#34;blendMode&#34;:&#34;NORMAL&#34;,&#34;visible&#34;:true}"/>
</g>
<rect x="5" y="4.00098" width="88" height="88" rx="10" fill="black" fill-opacity="0.8"/>
<rect x="23.0938" y="20.7271" width="54.5455" height="54.5455" rx="10" fill="black"/>
<path d="M49.7671 54.9347L38.4531 47.9994V35.8323C38.4531 30.4545 42.7169 26.0986 47.9812 26.0986C51.2468 26.0986 54.1291 27.7777 55.8472 30.3352" stroke="white" stroke-width="1.5" stroke-linecap="round" stroke-linejoin="round"/>
<path d="M44.7578 65.4708C45.6364 66.8378 46.8261 67.9575 48.2209 68.7302C49.6157 69.5029 51.1724 69.9046 52.7524 69.8996C58.012 69.8996 62.2805 65.5438 62.2805 60.1659V47.9988L50.7421 40.9346" stroke="white" stroke-width="1.5" stroke-linecap="round" stroke-linejoin="round"/>
<path d="M44.4141 51.6489V37.4621L54.7276 31.3785C59.2859 28.6896 65.1135 30.2835 67.7457 34.9386C68.5518 36.3578 68.9917 37.9698 69.0228 39.6181C69.054 41.2665 68.6752 42.8952 67.9233 44.3462" stroke="white" stroke-width="1.5" stroke-linecap="round" stroke-linejoin="round"/>
<path d="M32.8133 51.6508C32.0611 53.1016 31.6819 54.7302 31.7127 56.3786C31.7434 58.0269 32.1829 59.639 32.9887 61.0584C35.6208 65.7135 41.4508 67.3074 46.0091 64.6209L56.3226 58.5374L56.547 44.9199" stroke="white" stroke-width="1.5" stroke-linecap="round" stroke-linejoin="round"/>
<path d="M62.2821 61.6993C63.8755 61.6351 65.4281 61.1571 66.7987 60.3088C68.1693 59.4605 69.3143 58.2688 70.1295 56.8422C72.7616 52.187 71.2001 46.2325 66.6418 43.546L56.3259 37.4624L44.5 44.1665" stroke="white" stroke-width="1.5" stroke-linecap="round" stroke-linejoin="round"/>
<path d="M38.4566 34.2998C36.8628 34.3636 35.3097 34.8414 33.9387 35.6897C32.5677 36.5381 31.4223 37.73 30.6069 39.1569C27.9748 43.8145 29.5363 49.7666 34.0946 52.4531L44.4104 58.5367L56.2107 51.8448" stroke="white" stroke-width="1.5" stroke-linecap="round" stroke-linejoin="round"/>
<defs>
<filter id="filter0_f_611_1872" x="1" y="0" width="96" height="96" filterUnits="userSpaceOnUse" color-interpolation-filters="sRGB">
<feFlood flood-opacity="0" result="BackgroundImageFix"/>
<feBlend mode="normal" in="SourceGraphic" in2="BackgroundImageFix" result="shape"/>
<feGaussianBlur stdDeviation="2" result="effect1_foregroundBlur_611_1872"/>
</filter>
<filter id="filter1_d_611_1872" x="0" y="3" width="98" height="98" filterUnits="userSpaceOnUse" color-interpolation-filters="sRGB">
<feFlood flood-opacity="0" result="BackgroundImageFix"/>
<feColorMatrix in="SourceAlpha" type="matrix" values="0 0 0 0 0 0 0 0 0 0 0 0 0 0 0 0 0 0 127 0" result="hardAlpha"/>
<feOffset dy="4"/>
<feGaussianBlur stdDeviation="2"/>
<feComposite in2="hardAlpha" operator="out"/>
<feColorMatrix type="matrix" values="0 0 0 0 0 0 0 0 0 0 0 0 0 0 0 0 0 0 0.25 0"/>
<feBlend mode="normal" in2="BackgroundImageFix" result="effect1_dropShadow_611_1872"/>
<feBlend mode="normal" in="SourceGraphic" in2="effect1_dropShadow_611_1872" result="shape"/>
</filter>
<clipPath id="paint0_diamond_611_1872_clip_path"><rect x="4" y="3" width="90" height="90" rx="10"/></clipPath><linearGradient id="paint0_diamond_611_1872" x1="0" y1="0" x2="500" y2="500" gradientUnits="userSpaceOnUse">
<stop stop-color="#6FCDF3"/>
<stop offset="1"/>
</linearGradient>
</defs>
</svg>
