<svg width="757" height="982" viewBox="0 0 757 982" fill="none" xmlns="http://www.w3.org/2000/svg">
<path d="M-74 691L756 1119.95" stroke="#B3B3B3" stroke-opacity="0.1"/>
<path d="M-74 673.607L756 1045.48" stroke="#B3B3B3" stroke-opacity="0.1"/>
<path d="M-74 656.217L756 978.125" stroke="#B3B3B3" stroke-opacity="0.1"/>
<path d="M-74 638.826L756 916.204" stroke="#B3B3B3" stroke-opacity="0.1"/>
<path d="M-74 621.434L756 858.485" stroke="#B3B3B3" stroke-opacity="0.1"/>
<path d="M-74 604.043L756 804.044" stroke="#B3B3B3" stroke-opacity="0.1"/>
<path d="M-74 586.652L756 752.16" stroke="#B3B3B3" stroke-opacity="0.1"/>
<path d="M-74 569.26L756 702.255" stroke="#B3B3B3" stroke-opacity="0.1"/>
<path d="M-74 551.869L756 653.86" stroke="#B3B3B3" stroke-opacity="0.1"/>
<path d="M-74 534.479L756 606.575" stroke="#B3B3B3" stroke-opacity="0.1"/>
<path d="M-74 517.086L756 560.049" stroke="#B3B3B3" stroke-opacity="0.1"/>
<path d="M-74 499.695L756 513.968" stroke="#B3B3B3" stroke-opacity="0.1"/>
<path d="M-74 482.305L756 468.032" stroke="#B3B3B3" stroke-opacity="0.1"/>
<path d="M-74 464.912L756 421.95" stroke="#B3B3B3" stroke-opacity="0.1"/>
<path d="M-74 447.521L756 375.425" stroke="#B3B3B3" stroke-opacity="0.1"/>
<path d="M-74 430.131L756 328.14" stroke="#B3B3B3" stroke-opacity="0.1"/>
<path d="M-74 412.738L756 279.743" stroke="#B3B3B3" stroke-opacity="0.1"/>
<path d="M-74 395.348L756 229.84" stroke="#B3B3B3" stroke-opacity="0.1"/>
<path d="M-74 377.957L756 177.956" stroke="#B3B3B3" stroke-opacity="0.1"/>
<path d="M-74 360.564L756 123.513" stroke="#B3B3B3" stroke-opacity="0.1"/>
<path d="M-74 343.174L756 65.7963" stroke="#B3B3B3" stroke-opacity="0.1"/>
<path d="M-74 325.781L756 3.87299" stroke="#B3B3B3" stroke-opacity="0.1"/>
<path d="M-74 308.391L756 -63.4821" stroke="#B3B3B3" stroke-opacity="0.1"/>
<path d="M-74 291L756 -137.947" stroke="#B3B3B3" stroke-opacity="0.1"/>
<path d="M30.8828 745.205L30.8828 236.795" stroke="#B3B3B3" stroke-opacity="0.1"/>
<path d="M74.1797 767.58L74.1797 214.42" stroke="#B3B3B3" stroke-opacity="0.1"/>
<path d="M131.25 797.074L131.25 184.926" stroke="#B3B3B3" stroke-opacity="0.1"/>
<path d="M205.336 835.361L205.336 146.639" stroke="#B3B3B3" stroke-opacity="0.1"/>
<path d="M300.195 884.387L300.195 97.6135" stroke="#B3B3B3" stroke-opacity="0.1"/>
<path d="M420.172 946.391L420.172 35.6088" stroke="#B3B3B3" stroke-opacity="0.1"/>
<path d="M570.227 1023.94L570.227 -41.9386" stroke="#B3B3B3" stroke-opacity="0.1"/>
<path d="M756 1119.95L756 -137.948" stroke="#B3B3B3" stroke-opacity="0.1"/>
</svg>
