<svg width="38" height="36" viewBox="0 0 38 36" fill="none" xmlns="http://www.w3.org/2000/svg">
<path d="M26.1601 22.7208L25.2122 23.6645C25.2122 23.6645 22.956 25.9062 16.7997 19.7854C10.6435 13.6645 12.8997 11.4229 12.8997 11.4229L13.4955 10.827C14.9685 9.36454 15.108 7.01454 13.8226 5.29787L11.1976 1.79162C9.60595 -0.333376 6.53303 -0.614626 4.71012 1.19787L1.43928 4.44787C0.537201 5.34787 -0.0669667 6.51037 0.00595 7.80204C0.19345 11.1083 1.68928 18.2187 10.031 26.5145C18.8789 35.3104 27.181 35.6604 30.5747 35.3437C31.6497 35.2437 32.583 34.6979 33.3351 33.9479L36.2935 31.0062C38.2935 29.0208 37.731 25.6145 35.1726 24.225L31.1935 22.0604C29.5143 21.15 27.4726 21.4166 26.1601 22.7208Z" fill="#1487D5"/>
</svg>
